<svg width="16" height="16" viewBox="0 0 16 16" fill="none" xmlns="http://www.w3.org/2000/svg">
<path d="M7.66626 0.666016C6.12803 0.666016 4.85283 1.83738 4.68579 3.33268H3.9996C3.22893 3.33268 2.58741 3.91042 2.50741 4.67708L1.67407 12.6771C1.63007 13.0987 1.76768 13.5216 2.05168 13.8372C2.33568 14.1522 2.74226 14.3327 3.16626 14.3327H12.8329C13.2569 14.3327 13.6635 14.1522 13.9475 13.8372C14.2315 13.5219 14.3685 13.0987 14.3245 12.6771L13.4918 4.67708C13.4118 3.91042 12.7703 3.33268 11.9996 3.33268H11.3173C11.3276 3.44268 11.3329 3.55402 11.3329 3.66602V4.33268H11.9996C12.2566 4.33268 12.4703 4.52558 12.497 4.78125L13.3303 12.7812C13.345 12.9219 13.299 13.0626 13.2047 13.1673C13.11 13.2723 12.9743 13.3327 12.8329 13.3327H3.16626C3.02493 13.3327 2.8895 13.2726 2.79517 13.168C2.7005 13.063 2.6542 12.9219 2.66887 12.7812L3.5022 4.78125C3.52887 4.52558 3.7426 4.33268 3.9996 4.33268H4.66626V5.49935C4.66533 5.5656 4.67757 5.63139 4.70227 5.69287C4.72698 5.75435 4.76366 5.81031 4.81018 5.8575C4.8567 5.90468 4.91214 5.94215 4.97327 5.96773C5.0344 5.9933 5.1 6.00647 5.16626 6.00647C5.23252 6.00647 5.29813 5.9933 5.35926 5.96773C5.42038 5.94215 5.47582 5.90468 5.52234 5.8575C5.56886 5.81031 5.60554 5.75435 5.63025 5.69287C5.65496 5.63139 5.6672 5.5656 5.66626 5.49935V3.66602C5.66626 2.55559 6.55584 1.66602 7.66626 1.66602C8.66285 1.66602 9.47958 2.38304 9.63697 3.33268H6.3772C6.3492 3.43935 6.33293 3.55068 6.33293 3.66602V4.33268H9.66626V5.49935C9.66533 5.5656 9.67757 5.63139 9.70227 5.69287C9.72698 5.75435 9.76366 5.81031 9.81018 5.8575C9.8567 5.90468 9.91214 5.94215 9.97327 5.96773C10.0344 5.9933 10.1 6.00647 10.1663 6.00647C10.2325 6.00647 10.2981 5.9933 10.3593 5.96773C10.4204 5.94215 10.4758 5.90468 10.5223 5.8575C10.5689 5.81031 10.6055 5.75435 10.6303 5.69287C10.655 5.63139 10.6672 5.5656 10.6663 5.49935V3.66602C10.6663 2.01511 9.31717 0.666016 7.66626 0.666016Z" fill="white"/>
</svg>
